<svg xmlns="http://www.w3.org/2000/svg" class="inline w-4 h-4" fill="currentColor" viewBox="0 0 24 24">
  <path d="M12 .5C5.648.5.5 5.648.5 12c0 5.086 3.292 9.387 7.862 10.907.575.106.785-.25.785-.556 0-.274-.01-1.003-.016-1.97-3.197.695-3.874-1.542-3.874-1.542-.523-1.33-1.277-1.684-1.277-1.684-1.044-.714.08-.7.08-.7 1.154.081 1.761 1.185 1.761 1.185 1.026 1.758 2.693 1.25 3.35.956.104-.743.402-1.25.731-1.538-2.553-.29-5.238-1.277-5.238-5.687 0-1.256.448-2.283 1.184-3.088-.119-.29-.513-1.456.112-3.037 0 0 .966-.31 3.167 1.179a10.98 10.98 0 0 1 2.885-.388c.978.004 1.964.132 2.885.388 2.2-1.489 3.164-1.179 3.164-1.179.627 1.581.233 2.747.114 3.037.738.805 1.183 1.832 1.183 3.088 0 4.42-2.689 5.394-5.252 5.679.413.355.779 1.056.779 2.13 0 1.538-.014 2.778-.014 3.158 0 .309.207.666.791.553C20.712 21.383 24 17.083 24 12c0-6.352-5.148-11.5-12-11.5z"/>
</svg>